<svg width="32" height="24" viewBox="0 0 32 24" fill="none" xmlns="http://www.w3.org/2000/svg">
<path fill-rule="evenodd" clip-rule="evenodd" d="M-1.00024 2C-1.00024 0.89543 -0.104814 0 0.999756 0H32.9998C34.1043 0 34.9998 0.895431 34.9998 2V22C34.9998 23.1046 34.1043 24 32.9998 24H0.999757C-0.104813 24 -1.00024 23.1046 -1.00024 22V2Z" fill="white"/>
<path fill-rule="evenodd" clip-rule="evenodd" d="M-1.00024 2C-1.00024 0.895431 -0.104814 0 0.999756 0H32.9998C34.1043 0 34.9998 0.895431 34.9998 2V10C34.9998 11.1046 34.1043 12 32.9998 12H0.999757C-0.104813 12 -1.00024 11.1046 -1.00024 10V2Z" fill="#DF0000"/>
</svg>
