<svg width="27" height="29" viewBox="0 0 27 29" fill="none" xmlns="http://www.w3.org/2000/svg">
<path fill-rule="evenodd" clip-rule="evenodd" d="M15.4977 7.48012C16.0921 6.9415 16.8709 6.6521 17.6729 6.67185C18.4748 6.69159 19.2384 7.01897 19.8057 7.58619C20.3729 8.15342 20.7003 8.91705 20.72 9.71898C20.7398 10.5209 20.4504 11.2997 19.9117 11.8942C19.9058 11.9007 19.8998 11.9071 19.8936 11.9134L12.1358 19.7806C12.1276 19.7889 12.1191 19.797 12.1104 19.8049C11.7538 20.128 11.2865 20.3017 10.8053 20.2898C10.3241 20.278 9.86596 20.0816 9.52563 19.7412C9.18529 19.4009 8.98887 18.9427 8.97702 18.4616C8.96518 17.9804 9.13881 17.5131 9.46199 17.1564C9.46771 17.1501 9.47356 17.1439 9.47953 17.1378L15.9873 10.5207C16.2294 10.2746 16.6251 10.2713 16.8712 10.5133C17.1173 10.7553 17.1206 11.151 16.8786 11.3971L10.3813 18.0037C10.2781 18.1215 10.2228 18.2739 10.2266 18.4308C10.2306 18.5912 10.2961 18.7439 10.4095 18.8573C10.523 18.9708 10.6757 19.0363 10.8361 19.0402C10.9916 19.044 11.1428 18.9897 11.2602 18.8882L18.9936 11.0458C19.3115 10.6903 19.4821 10.2268 19.4704 9.74975C19.4585 9.26859 19.2621 8.81041 18.9218 8.47007C18.5815 8.12974 18.1233 7.93331 17.6421 7.92147C17.1664 7.90975 16.7042 8.07936 16.3491 8.39553L8.60147 16.2524C8.01627 16.8376 7.6875 17.6313 7.6875 18.4589C7.6875 19.2865 8.01626 20.0802 8.60146 20.6654C9.18666 21.2506 9.98036 21.5794 10.808 21.5794C11.6356 21.5794 12.4293 21.2506 13.0145 20.6654L19.4291 14.2664C19.6734 14.0226 20.0692 14.0231 20.3129 14.2675C20.5567 14.5119 20.5562 14.9076 20.3119 15.1514L13.8983 21.5493C13.0787 22.3689 11.9671 22.8294 10.808 22.8294C9.64884 22.8294 8.5372 22.3689 7.71758 21.5493C6.89796 20.7297 6.4375 19.618 6.4375 18.4589C6.4375 17.3005 6.89735 16.1896 7.71596 15.3701L15.4723 7.50444C15.4805 7.4961 15.489 7.48799 15.4977 7.48012Z" fill="#1AB192"/>
</svg>
