<svg width="20" height="20" viewBox="0 0 20 20" fill="none" xmlns="http://www.w3.org/2000/svg">
<path fill-rule="evenodd" clip-rule="evenodd" d="M2.77124 9.42214C2.77124 5.77299 5.7679 2.79492 9.4905 2.79492C13.212 2.79492 16.2098 5.77309 16.2098 9.42214C16.2098 13.0712 13.212 16.0493 9.4905 16.0493C5.7679 16.0493 2.77124 13.0713 2.77124 9.42214ZM9.4905 0.794922C4.68601 0.794922 0.77124 4.64587 0.77124 9.42214C0.77124 14.1984 4.68601 18.0494 9.4905 18.0494C11.551 18.0494 13.4483 17.3407 14.9431 16.1543L17.4321 18.9137C17.8021 19.3238 18.4344 19.3564 18.8445 18.9864C19.2546 18.6165 19.2872 17.9842 18.9173 17.5741L16.3588 14.7377C17.5178 13.2742 18.2098 11.43 18.2098 9.42214C18.2098 4.64577 14.2937 0.794922 9.4905 0.794922Z" fill="url(#paint0_linear_353_977)"/>
<defs>
<linearGradient id="paint0_linear_353_977" x1="11.0036" y1="0.794922" x2="10.8906" y2="19.2432" gradientUnits="userSpaceOnUse">
<stop stop-color="#65BEAC" stop-opacity="0.97"/>
<stop offset="0.984375" stop-color="#3E8575"/>
</linearGradient>
</defs>
</svg>
