<svg width="25" height="30" viewBox="0 0 25 30" fill="none" xmlns="http://www.w3.org/2000/svg">
<path fill-rule="evenodd" clip-rule="evenodd" d="M12.2189 7.25C10.8382 7.25 9.71887 8.36929 9.71887 9.75V14.75C9.71887 16.1307 10.8382 17.25 12.2189 17.25C13.5996 17.25 14.7189 16.1307 14.7189 14.75V9.75C14.7189 8.36929 13.5996 7.25 12.2189 7.25ZM8.46887 9.75C8.46887 7.67893 10.1478 6 12.2189 6C14.2899 6 15.9689 7.67893 15.9689 9.75V14.75C15.9689 16.8211 14.2899 18.5 12.2189 18.5C10.1478 18.5 8.46887 16.8211 8.46887 14.75V9.75Z" fill="#1AB192"/>
<path fill-rule="evenodd" clip-rule="evenodd" d="M12.2189 19.75C12.5641 19.75 12.8439 20.0298 12.8439 20.375V22.875C12.8439 23.2202 12.5641 23.5 12.2189 23.5C11.8737 23.5 11.5939 23.2202 11.5939 22.875V20.375C11.5939 20.0298 11.8737 19.75 12.2189 19.75Z" fill="#1AB192"/>
<path fill-rule="evenodd" clip-rule="evenodd" d="M6.55158 14.7543C6.89437 14.7137 7.20515 14.9587 7.24573 15.3015C7.38988 16.5192 7.9758 17.6417 8.89241 18.4562C9.80902 19.2707 10.9926 19.7206 12.2188 19.7206C13.445 19.7206 14.6286 19.2707 15.5452 18.4562C16.4618 17.6417 17.0477 16.5192 17.1919 15.3015C17.2325 14.9587 17.5433 14.7137 17.886 14.7543C18.2288 14.7949 18.4738 15.1057 18.4332 15.4485C18.2531 16.9701 17.5209 18.3728 16.3755 19.3906C15.2301 20.4084 13.7511 20.9706 12.2188 20.9706C10.6865 20.9706 9.20751 20.4084 8.06211 19.3906C6.91671 18.3728 6.18454 16.9701 6.00439 15.4485C5.96381 15.1057 6.2088 14.7949 6.55158 14.7543Z" fill="#1AB192"/>
</svg>
