<svg width="18" height="18" viewBox="0 0 18 18" fill="none" xmlns="http://www.w3.org/2000/svg">
<path d="M2.56702 1.58902C2.62989 1.52615 2.66133 1.49471 2.68902 1.46926C3.36995 0.843578 4.4166 0.843578 5.09753 1.46926C5.12522 1.49471 5.15666 1.52615 5.21953 1.58902L6.51721 2.8867C7.23098 3.60046 7.43511 4.67837 7.03177 5.6037C6.62842 6.52903 6.83255 7.60694 7.54632 8.3207L9.6793 10.4537C10.3931 11.1674 11.471 11.3716 12.3963 10.9682C13.3216 10.5649 14.3995 10.769 15.1133 11.4828L16.411 12.7805C16.4739 12.8433 16.5053 12.8748 16.5307 12.9025C17.1564 13.5834 17.1564 14.63 16.5307 15.311C16.5053 15.3387 16.4739 15.3701 16.411 15.433L15.6222 16.2218C14.9799 16.8641 14.0539 17.1337 13.1671 16.9367C7.12488 15.594 2.40603 10.8751 1.06332 4.8329C0.866257 3.94613 1.13591 3.02013 1.77825 2.37779L2.56702 1.58902Z" stroke="white" stroke-width="1.5"/>
</svg>
